<?xml version="1.0" encoding="UTF-8" standalone="no"?>
<!-- Created with Inkscape (http://www.inkscape.org/) -->

<svg
   width="40.794106mm"
   height="40.993668mm"
   viewBox="0 0 40.794105 40.993667"
   version="1.1"
   id="svg1"
   xml:space="preserve"
   inkscape:version="1.4.2 (ebf0e940d0, 2025-05-08)"
   sodipodi:docname="avatar-male.svg"
   xmlns:inkscape="http://www.inkscape.org/namespaces/inkscape"
   xmlns:sodipodi="http://sodipodi.sourceforge.net/DTD/sodipodi-0.dtd"
   xmlns="http://www.w3.org/2000/svg"
   xmlns:svg="http://www.w3.org/2000/svg"><sodipodi:namedview
     id="namedview1"
     pagecolor="#ffffff"
     bordercolor="#000000"
     borderopacity="0.25"
     inkscape:showpageshadow="2"
     inkscape:pageopacity="0.0"
     inkscape:pagecheckerboard="0"
     inkscape:deskcolor="#d1d1d1"
     inkscape:document-units="mm"
     inkscape:zoom="2.1025"
     inkscape:cx="42.092747"
     inkscape:cy="97.265161"
     inkscape:window-width="1920"
     inkscape:window-height="1008"
     inkscape:window-x="0"
     inkscape:window-y="0"
     inkscape:window-maximized="1"
     inkscape:current-layer="layer1" /><defs
     id="defs1"><clipPath
       clipPathUnits="userSpaceOnUse"
       id="clipPath1"><rect
         style="opacity:0.437559;fill:#808080;stroke-width:0"
         id="rect2"
         width="42.178375"
         height="43.780083"
         x="33.262691"
         y="24.038342" /></clipPath><clipPath
       clipPathUnits="userSpaceOnUse"
       id="clipPath3"><rect
         style="opacity:0.437559;fill:#808080;stroke-width:0"
         id="rect4"
         width="40.794106"
         height="40.993668"
         x="33.965618"
         y="24.698086" /></clipPath></defs><g
     inkscape:label="Layer 1"
     inkscape:groupmode="layer"
     id="layer1"
     transform="translate(-29.69439,-18.113277)"><path
       style="fill:#000000"
       d="M 13.8642,45.279852 V 4.63985 h 40.640004 40.64 v 40.640002 40.640004 h -40.64 H 13.8642 Z m 81.237674,0 V 4.6821834 H 54.504204 13.906533 v 40.5976686 40.59767 h 40.597671 40.59767 z m -60.53435,20.188156 c -0.32757,-0.240913 -0.36126,-0.304871 -0.37132,-0.704935 -0.005,-0.200451 0.007,-0.384691 0.026,-0.409421 0.0194,-0.02473 0.0468,-0.121165 0.0611,-0.214298 0.025,-0.163624 0.0816,-0.437056 0.13592,-0.656167 0.0144,-0.05821 0.0417,-0.172508 0.0607,-0.254 0.019,-0.08149 0.077,-0.300567 0.1289,-0.486833 0.0519,-0.186267 0.10893,-0.405342 0.1267,-0.486834 0.0178,-0.08149 0.0823,-0.338666 0.14341,-0.5715 0.0611,-0.232833 0.12038,-0.474741 0.13173,-0.537574 0.0113,-0.06283 0.0373,-0.158082 0.0577,-0.211666 0.0204,-0.05358 0.0379,-0.112031 0.0389,-0.129881 0.005,-0.0896 0.0644,-0.334724 0.14061,-0.581379 0.11319,-0.366462 0.81425,-1.75043 1.00636,-1.986669 0.16932,-0.208219 0.69841,-0.750375 0.82996,-0.850465 0.0465,-0.03537 0.24945,-0.191486 0.45104,-0.346934 0.40636,-0.313347 0.84698,-0.552394 1.39031,-0.75428 0.1979,-0.07354 1.55045,-0.530409 3.00566,-1.015272 1.45521,-0.484863 3.09351,-1.037302 3.64067,-1.227643 0.54716,-0.190342 1.04405,-0.361086 1.10421,-0.379433 0.20761,-0.06331 0.44222,-0.246576 0.81585,-0.637291 0.32105,-0.33573 0.66227,-0.782182 0.66227,-0.866513 0,-0.01388 0.0693,-0.133625 0.15409,-0.266104 0.0848,-0.132478 0.22025,-0.3935 0.30113,-0.580049 0.15069,-0.347582 0.56338,-1.532989 0.55074,-1.581941 -0.004,-0.01498 0.0273,-0.177451 0.0692,-0.361042 l 0.0762,-0.333803 -0.44393,-0.449364 c -0.24417,-0.247151 -0.51665,-0.554139 -0.60552,-0.682198 -0.49956,-0.71989 -0.60918,-0.887754 -0.70828,-1.084609 -0.36271,-0.720502 -0.63058,-1.617155 -0.7287,-2.43927 -0.0681,-0.570284 -0.12973,-0.719743 -0.33762,-0.818396 -0.29006,-0.137643 -0.3954,-0.3189 -0.68703,-1.182225 -0.31524,-0.933236 -0.41899,-1.344731 -0.56035,-2.2225 -0.11294,-0.701334 -0.10893,-0.888802 0.0267,-1.247936 0.12515,-0.331395 0.18977,-0.434336 0.51058,-0.813377 l 0.22188,-0.262146 0.0129,-2.489521 c 0.007,-1.369237 0.0249,-2.537146 0.0397,-2.595354 0.0148,-0.05821 0.0397,-0.239184 0.0555,-0.402167 0.0847,-0.876243 0.72729,-2.551778 1.21805,-3.175871 0.10947,-0.139221 0.42522,-0.557929 0.70166,-0.930463 0.67579,-0.910708 1.25338,-1.43906 2.08053,-1.903167 0.24447,-0.137173 0.55505,-0.312765 0.69018,-0.390203 0.13513,-0.07744 0.25457,-0.140797 0.26543,-0.140797 0.0109,0 0.0914,-0.04526 0.17906,-0.100576 0.19764,-0.124765 1.39232,-0.52967 1.65574,-0.56117 0.10675,-0.01276 0.28934,-0.05476 0.40575,-0.09333 0.17684,-0.05858 0.39973,-0.06973 1.35467,-0.06779 0.62865,0.0013 1.28588,0.02306 1.4605,0.04841 0.42014,0.06098 0.88963,0.137139 0.99483,0.161384 0.0466,0.01073 0.14182,0.03067 0.21167,0.04431 0.0699,0.01364 0.1651,0.04083 0.21167,0.06041 0.0466,0.01959 0.12276,0.04485 0.16933,0.05614 0.0466,0.01129 0.24659,0.07956 0.4445,0.151718 1.08958,0.397254 2.06094,1.15228 2.59233,2.01499 0.35751,0.580416 0.45555,0.809578 0.56147,1.312333 0.01,0.04657 0.09,0.141817 0.17827,0.211667 0.23843,0.188748 0.46277,0.434084 0.63746,0.697115 0.21264,0.320187 0.53664,1.060042 0.62166,1.419552 0.0385,0.162983 0.10813,0.44976 0.15464,0.637283 0.0465,0.187523 0.0858,0.416123 0.0873,0.508 0.002,0.09188 0.0108,1.375091 0.0208,2.851585 l 0.0181,2.684534 0.24438,0.278799 c 0.29383,0.335224 0.38985,0.491718 0.51447,0.83846 0.0895,0.248992 0.092,0.288172 0.0468,0.719667 -0.0954,0.910115 -0.32537,1.871314 -0.70458,2.944826 -0.0805,0.227784 -0.17333,0.465909 -0.20637,0.529167 -0.0759,0.145318 -0.26122,0.318387 -0.43439,0.405702 -0.1521,0.07669 -0.24828,0.310548 -0.2896,0.704144 -0.0298,0.284056 -0.0968,0.682345 -0.15318,0.910167 -0.023,0.09313 -0.0474,0.197908 -0.0543,0.232833 -0.007,0.03493 -0.0226,0.09208 -0.0351,0.127 -0.0125,0.03493 -0.0459,0.149225 -0.0743,0.254 -0.1001,0.369785 -0.55916,1.297092 -0.8802,1.778 -0.20833,0.312074 -0.49627,0.663233 -0.80211,0.978235 -0.26242,0.27027 -0.47712,0.525235 -0.47712,0.566588 0,0.04135 0.0183,0.144073 0.0407,0.228266 0.0224,0.08419 0.0887,0.343578 0.14734,0.576412 0.23543,0.93446 0.75925,2.058873 1.28447,2.757203 0.28295,0.376203 0.47719,0.563212 0.83871,0.807483 0.30657,0.207141 0.5214,0.29205 1.83746,0.726235 3.62592,1.196239 4.49622,1.493644 4.84717,1.656398 0.0466,0.0216 0.45614,0.184476 0.91016,0.361956 1.57373,0.615174 1.73145,0.686449 2.02524,0.915199 0.46674,0.363416 0.67209,0.579624 1.13146,1.191267 0.45499,0.605814 0.76638,1.174452 0.88937,1.624116 0.0372,0.135929 0.0833,0.304293 0.10248,0.374144 0.0469,0.170708 0.19273,0.707703 0.2702,0.994833 0.17143,0.635319 0.23496,0.876942 0.25599,0.973667 0.073,0.335456 0.11263,0.505053 0.15347,0.656166 0.0717,0.265258 0.11725,0.449926 0.16191,0.656167 0.0227,0.104775 0.0808,0.337787 0.12907,0.517805 0.17531,0.653407 0.0936,1.085023 -0.25073,1.323608 l -0.15427,0.10691 -19.80669,0.01009 -19.80668,0.01009 z"
       id="path2"
       clip-path="url(#clipPath3)"
       transform="translate(-4.2712277,-6.5848092)" /></g></svg>
